<?xml version="1.0" encoding="UTF-8"?>
<svg width="413px" height="117px" viewBox="0 0 413 117" version="1.1" xmlns="http://www.w3.org/2000/svg" xmlns:xlink="http://www.w3.org/1999/xlink">
    <title>Untitled</title>
    <g id="Page-1" stroke="none" stroke-width="1" fill="none" fill-rule="evenodd">
        <g id="logoipsum-352" transform="translate(0.300781, 0.181610)">
            <path d="M357.250219,44.99999 L357.250219,44.43999 L357.306219,44.43999 C358.650219,44.43999 359.733219,44.02939 360.554219,43.20799 C361.375219,42.38669 361.786219,41.30399 361.786219,39.95999 L361.786219,21.59199 C361.786219,20.17329 361.487219,19.07199 360.890219,18.28799 C360.330219,17.50399 359.117219,17.11199 357.250219,17.11199 L357.250219,16.55199 L362.794219,16.55199 C364.325219,16.55199 365.501219,16.47739 366.322219,16.32799 C367.181219,16.17869 367.815219,15.99199 368.226219,15.76799 C368.637219,15.50669 368.935219,15.24529 369.122219,14.98399 L369.682219,14.98399 L369.738219,22.26399 C370.709219,20.32269 372.183219,18.75469 374.162219,17.55999 C376.141219,16.36539 378.231219,15.76799 380.434219,15.76799 C382.562219,15.76799 384.335219,16.36539 385.754219,17.55999 C387.173219,18.75469 388.087219,20.35999 388.498219,22.37599 C389.543219,20.35999 391.036219,18.75469 392.978219,17.55999 C394.957219,16.36539 397.084219,15.76799 399.362219,15.76799 C401.863219,15.76799 403.860219,16.58929 405.354219,18.23199 C406.885219,19.87469 407.650219,22.03999 407.650219,24.72799 L407.650219,39.95999 C407.650219,41.30399 408.061219,42.38669 408.882219,43.20799 C409.703219,44.02939 410.786219,44.43999 412.130219,44.43999 L412.186219,44.43999 L412.186219,44.99999 L395.106219,44.99999 L395.106219,44.43999 L395.162219,44.43999 C396.506219,44.43999 397.589219,44.02939 398.410219,43.20799 C399.231219,42.38669 399.642219,41.30399 399.642219,39.95999 L399.642219,24.16799 C399.642219,22.30139 399.269219,20.80799 398.522219,19.68799 C397.775219,18.56799 396.805219,18.00799 395.610219,18.00799 C394.453219,18.00799 393.239219,18.53069 391.970219,19.57599 C390.700219,20.58399 389.599219,21.90939 388.666219,23.55199 C388.703219,23.62669 388.722219,23.71999 388.722219,23.83199 C388.722219,23.94399 388.722219,24.03739 388.722219,24.11199 L388.722219,39.95999 C388.722219,41.30399 389.133219,42.38669 389.954219,43.20799 C390.775219,44.02939 391.858219,44.43999 393.202219,44.43999 L393.258219,44.43999 L393.258219,44.99999 L376.178219,44.99999 L376.178219,44.43999 L376.234219,44.43999 C377.578219,44.43999 378.661219,44.02939 379.482219,43.20799 C380.303219,42.38669 380.714219,41.30399 380.714219,39.95999 L380.714219,24.16799 C380.714219,22.30139 380.341219,20.80799 379.594219,19.68799 C378.885219,18.56799 377.933219,18.00799 376.738219,18.00799 C375.581219,18.00799 374.367219,18.51199 373.098219,19.51999 C371.866219,20.49069 370.783219,21.81599 369.850219,23.49599 L369.850219,39.95999 C369.850219,41.30399 370.261219,42.38669 371.082219,43.20799 C371.903219,44.02939 372.986219,44.43999 374.330219,44.43999 L374.386219,44.43999 L374.386219,44.99999 L357.250219,44.99999 Z" id="Path" fill="#C63E30" fill-rule="nonzero"></path>
            <path d="M345.473219,46.56799 L345.417219,39.34399 C344.446219,41.24799 342.971219,42.79739 340.993219,43.99199 C339.014219,45.18669 336.923219,45.78399 334.721219,45.78399 C332.219219,45.78399 330.203219,44.96269 328.673219,43.31999 C327.179219,41.67739 326.433219,39.51199 326.433219,36.82399 L326.433219,21.59199 C326.433219,20.17329 326.153219,19.07199 325.593219,18.28799 C325.033219,17.50399 323.801219,17.11199 321.897219,17.11199 L321.897219,16.55199 L327.553219,16.55199 C329.457219,16.55199 330.913219,16.34669 331.921219,15.93599 C332.854219,15.52529 333.507219,15.02129 333.881219,14.42399 L334.441219,14.42399 L334.441219,37.38399 C334.441219,39.25069 334.814219,40.74399 335.561219,41.86399 C336.307219,42.98399 337.278219,43.54399 338.473219,43.54399 C339.630219,43.54399 340.825219,43.05869 342.057219,42.08799 C343.289219,41.07999 344.371219,39.73599 345.305219,38.05599 L345.305219,21.59199 C345.305219,20.24799 344.969219,19.16539 344.297219,18.34399 C343.625219,17.52269 342.467219,17.11199 340.825219,17.11199 L340.825219,16.55199 L346.481219,16.55199 C348.385219,16.55199 349.841219,16.34669 350.849219,15.93599 C351.819219,15.52529 352.491219,15.02129 352.865219,14.42399 L353.425219,14.42399 L353.369219,39.95999 C353.369219,41.30399 353.779219,42.40539 354.601219,43.26399 C355.422219,44.08539 356.505219,44.49599 357.849219,44.49599 L357.849219,44.99999 L352.305219,44.99999 C351.334219,44.99999 350.475219,45.01869 349.729219,45.05599 C348.982219,45.13069 348.366219,45.20539 347.881219,45.27999 C346.873219,45.50399 346.163219,45.93339 345.753219,46.56799 L345.473219,46.56799 Z" id="Path" fill="#C63E30" fill-rule="nonzero"></path>
            <path d="M310.752219,45.78399 C309.781219,45.78399 309.053219,45.74669 308.568219,45.67199 C308.083219,45.59739 307.616219,45.50399 307.168219,45.39199 C306.757219,45.27999 306.197219,45.18669 305.488219,45.11199 C304.779219,45.03739 303.696219,44.99999 302.240219,44.99999 L300.896219,34.47199 L301.624219,34.47199 C302.221219,37.98139 303.341219,40.63199 304.984219,42.42399 C306.627219,44.17869 308.419219,45.05599 310.360219,45.05599 C312.264219,45.05599 313.701219,44.66399 314.672219,43.87999 C315.680219,43.09599 316.184219,42.03199 316.184219,40.68799 C316.184219,39.82939 315.960219,39.08269 315.512219,38.44799 C315.101219,37.77599 314.373219,37.10399 313.328219,36.43199 C312.283219,35.72269 310.864219,34.88269 309.072219,33.91199 L307.448219,33.01599 C305.395219,31.85869 303.864219,30.51469 302.856219,28.98399 C301.885219,27.41599 301.400219,25.73599 301.400219,23.94399 C301.400219,21.40539 302.315219,19.40799 304.144219,17.95199 C306.011219,16.49599 308.493219,15.76799 311.592219,15.76799 C312.376219,15.76799 313.011219,15.80529 313.496219,15.87999 C313.981219,15.95469 314.448219,16.04799 314.896219,16.15999 C315.344219,16.27199 315.904219,16.36529 316.576219,16.43999 C317.248219,16.51469 318.144219,16.55199 319.264219,16.55199 L320.048219,25.56799 L319.376219,25.56799 C319.152219,23.81339 318.648219,22.26399 317.864219,20.91999 C317.117219,19.53869 316.221219,18.47469 315.176219,17.72799 C314.131219,16.94399 313.067219,16.55199 311.984219,16.55199 C310.565219,16.55199 309.427219,16.92529 308.568219,17.67199 C307.747219,18.41869 307.336219,19.46399 307.336219,20.80799 C307.336219,21.81599 307.653219,22.74929 308.288219,23.60799 C308.960219,24.42939 310.229219,25.32529 312.096219,26.29599 L313.776219,27.13599 C316.389219,28.47999 318.293219,29.87999 319.488219,31.33599 C320.683219,32.79199 321.280219,34.65869 321.280219,36.93599 C321.280219,42.75999 317.771219,45.70939 310.752219,45.78399 Z" id="Path" fill="#C63E30" fill-rule="nonzero"></path>
            <path d="M264.852219,56.75999 L264.852219,56.19999 L264.908219,56.19999 C266.252219,56.19999 267.335219,55.78939 268.156219,54.96799 C268.978219,54.14669 269.388219,53.06399 269.388219,51.71999 L269.388219,21.59199 C269.351219,19.94939 268.996219,18.79199 268.324219,18.11999 C267.652219,17.44799 266.495219,17.11199 264.852219,17.11199 L264.852219,16.55199 L270.396219,16.55199 C272.599219,16.55199 274.111219,16.34669 274.932219,15.93599 C275.754219,15.52529 276.351219,15.02129 276.724219,14.42399 L277.284219,14.42399 L277.340219,21.59199 C278.199219,19.91199 279.506219,18.51199 281.260219,17.39199 C283.015219,16.27199 284.863219,15.71199 286.804219,15.71199 C288.895219,15.71199 290.743219,16.34669 292.348219,17.61599 C293.954219,18.88529 295.204219,20.62129 296.100219,22.82399 C297.034219,24.98929 297.500219,27.49069 297.500219,30.32799 C297.500219,33.46399 296.940219,36.18939 295.820219,38.50399 C294.700219,40.81869 293.114219,42.61069 291.060219,43.87999 C289.044219,45.14939 286.636219,45.78399 283.836219,45.78399 C282.306219,45.78399 281.055219,45.54129 280.084219,45.05599 C279.114219,44.60799 278.236219,43.84269 277.452219,42.75999 L277.452219,51.71999 C277.452219,53.06399 277.863219,54.14669 278.684219,54.96799 C279.506219,55.78939 280.588219,56.19999 281.932219,56.19999 L281.988219,56.19999 L281.988219,56.75999 L264.852219,56.75999 Z M282.660219,44.83199 C284.676219,44.83199 286.207219,43.58139 287.252219,41.07999 C288.260219,38.54139 288.764219,34.90139 288.764219,30.15999 C288.764219,22.02139 287.122219,17.95199 283.836219,17.95199 C282.567219,17.95199 281.316219,18.45599 280.084219,19.46399 C278.852219,20.47199 277.975219,21.70399 277.452219,23.15999 L277.452219,36.20799 C277.452219,38.89599 277.919219,41.00539 278.852219,42.53599 C279.786219,44.06669 281.055219,44.83199 282.660219,44.83199 Z" id="Shape" fill="#C63E30" fill-rule="nonzero"></path>
            <path d="M249.571219,44.99999 L249.571219,44.43999 L249.627219,44.43999 C250.971219,44.43999 252.054219,44.02939 252.875219,43.20799 C253.697219,42.38669 254.107219,41.30399 254.107219,39.95999 L254.107219,21.59199 C254.107219,20.17329 253.809219,19.07199 253.211219,18.28799 C252.651219,17.50399 251.438219,17.11199 249.571219,17.11199 L249.571219,16.55199 L255.283219,16.55199 C257.187219,16.55199 258.643219,16.34669 259.651219,15.93599 C260.585219,15.52529 261.238219,15.02129 261.611219,14.42399 L262.171219,14.42399 L262.171219,39.95999 C262.171219,41.30399 262.582219,42.38669 263.403219,43.20799 C264.225219,44.02939 265.307219,44.43999 266.651219,44.43999 L266.707219,44.43999 L266.707219,44.99999 L249.571219,44.99999 Z M258.083219,10.89599 C256.739219,10.89599 255.619219,10.46669 254.723219,9.60801 C253.865219,8.71201 253.435219,7.59201 253.435219,6.24801 C253.435219,4.904 253.865219,3.80267 254.723219,2.94401 C255.619219,2.04801 256.739219,1.60001 258.083219,1.60001 C259.390219,1.60001 260.473219,2.04801 261.331219,2.94401 C262.227219,3.84 262.675219,4.94134 262.675219,6.24801 C262.675219,7.55467 262.227219,8.65601 261.331219,9.55201 C260.473219,10.44799 259.390219,10.89599 258.083219,10.89599 Z" id="Shape" fill="#C63E30" fill-rule="nonzero"></path>
            <path d="M233.504219,45.78399 C230.443219,45.78399 227.755219,45.16799 225.440219,43.93599 C223.163219,42.70399 221.390219,40.96799 220.120219,38.72799 C218.851219,36.48799 218.216219,33.83739 218.216219,30.77599 C218.216219,27.71469 218.851219,25.06399 220.120219,22.82399 C221.390219,20.58399 223.163219,18.84799 225.440219,17.61599 C227.755219,16.38399 230.443219,15.76799 233.504219,15.76799 C236.566219,15.76799 239.235219,16.38399 241.512219,17.61599 C243.790219,18.84799 245.563219,20.58399 246.832219,22.82399 C248.102219,25.06399 248.736219,27.71469 248.736219,30.77599 C248.736219,33.83739 248.102219,36.48799 246.832219,38.72799 C245.563219,40.96799 243.790219,42.70399 241.512219,43.93599 C239.235219,45.16799 236.566219,45.78399 233.504219,45.78399 Z M233.448219,45.05599 C234.755219,45.05599 235.875219,44.40269 236.808219,43.09599 C237.742219,41.78939 238.470219,40.05339 238.992219,37.88799 C239.515219,35.68539 239.776219,33.29599 239.776219,30.71999 C239.776219,27.91999 239.496219,25.45599 238.936219,23.32799 C238.414219,21.16269 237.667219,19.48269 236.696219,18.28799 C235.763219,17.05599 234.699219,16.43999 233.504219,16.43999 C232.235219,16.43999 231.115219,17.09329 230.144219,18.39999 C229.211219,19.70669 228.483219,21.44269 227.960219,23.60799 C227.438219,25.77339 227.176219,28.14399 227.176219,30.71999 C227.176219,33.55729 227.456219,36.05869 228.016219,38.22399 C228.576219,40.38929 229.323219,42.06929 230.256219,43.26399 C231.227219,44.45869 232.291219,45.05599 233.448219,45.05599 Z" id="Shape" fill="#C63E30" fill-rule="nonzero"></path>
            <path d="M203.195219,57.54399 C199.238219,57.54399 196.027219,57.00269 193.563219,55.91999 C191.136219,54.87469 189.923219,53.49339 189.923219,51.77599 C189.923219,50.46939 190.539219,49.29339 191.771219,48.24799 C193.040219,47.23999 194.758219,46.45599 196.923219,45.89599 C193.414219,44.99999 191.659219,43.41339 191.659219,41.13599 C191.659219,39.90399 192.144219,38.76539 193.115219,37.71999 C194.086219,36.63739 195.448219,35.77869 197.203219,35.14399 C195.336219,34.32269 193.880219,33.12799 192.835219,31.55999 C191.827219,29.99199 191.323219,28.14399 191.323219,26.01599 C191.323219,22.91729 192.387219,20.43469 194.515219,18.56799 C196.680219,16.70139 199.574219,15.76799 203.195219,15.76799 C204.912219,15.76799 206.592219,16.02929 208.235219,16.55199 L218.539219,16.55199 L217.979219,17.55999 L210.363219,17.55999 C211.856219,18.41869 212.995219,19.57599 213.779219,21.03199 C214.600219,22.45069 215.011219,24.11199 215.011219,26.01599 C215.011219,29.11469 213.947219,31.61599 211.819219,33.51999 C209.728219,35.38669 206.854219,36.31999 203.195219,36.31999 C201.179219,36.31999 199.406219,36.02129 197.875219,35.42399 C196.680219,36.05869 196.083219,36.80529 196.083219,37.66399 C196.083219,38.41069 196.606219,38.91469 197.651219,39.17599 C198.174219,39.32539 198.920219,39.45599 199.891219,39.56799 C200.862219,39.67999 202.038219,39.75469 203.419219,39.79199 L205.379219,39.90399 C209.672219,40.05339 212.976219,40.87469 215.291219,42.36799 C217.643219,43.86129 218.819219,45.89599 218.819219,48.47199 C218.819219,51.34669 217.438219,53.56799 214.675219,55.13599 C211.912219,56.74139 208.086219,57.54399 203.195219,57.54399 Z M203.139219,35.64799 C204.296219,35.64799 205.248219,34.77069 205.995219,33.01599 C206.667219,31.26139 207.003219,28.92799 207.003219,26.01599 C207.003219,23.06669 206.667219,20.73329 205.995219,19.01599 C205.286219,17.33599 204.352219,16.49599 203.195219,16.49599 C202.000219,16.49599 201.067219,17.33599 200.395219,19.01599 C199.723219,20.73329 199.387219,23.06669 199.387219,26.01599 C199.387219,28.96529 199.723219,31.31729 200.395219,33.07199 C201.067219,34.78939 201.982219,35.64799 203.139219,35.64799 Z M203.811219,56.81599 C205.528219,56.81599 207.115219,56.55469 208.571219,56.03199 C210.027219,55.54669 211.184219,54.85599 212.043219,53.95999 C212.939219,53.06399 213.387219,52.03729 213.387219,50.87999 C213.387219,49.61069 212.734219,48.60269 211.427219,47.85599 C210.046219,47.14669 207.936219,46.77339 205.099219,46.73599 L203.139219,46.62399 C202.056219,46.58669 201.048219,46.51199 200.115219,46.39999 C199.219219,46.32539 198.416219,46.21339 197.707219,46.06399 C196.923219,46.32539 196.344219,46.84799 195.971219,47.63199 C195.598219,48.41599 195.411219,49.34929 195.411219,50.43199 C195.411219,52.37339 196.139219,53.92269 197.595219,55.07999 C199.051219,56.23739 201.123219,56.81599 203.811219,56.81599 Z" id="Shape" fill="#C63E30" fill-rule="nonzero"></path>
            <path d="M172.856219,45.78399 C169.795219,45.78399 167.107219,45.16799 164.792219,43.93599 C162.515219,42.70399 160.741219,40.96799 159.472219,38.72799 C158.203219,36.48799 157.568219,33.83739 157.568219,30.77599 C157.568219,27.71469 158.203219,25.06399 159.472219,22.82399 C160.741219,20.58399 162.515219,18.84799 164.792219,17.61599 C167.107219,16.38399 169.795219,15.76799 172.856219,15.76799 C175.917219,15.76799 178.587219,16.38399 180.864219,17.61599 C183.141219,18.84799 184.915219,20.58399 186.184219,22.82399 C187.453219,25.06399 188.088219,27.71469 188.088219,30.77599 C188.088219,33.83739 187.453219,36.48799 186.184219,38.72799 C184.915219,40.96799 183.141219,42.70399 180.864219,43.93599 C178.587219,45.16799 175.917219,45.78399 172.856219,45.78399 Z M172.800219,45.05599 C174.107219,45.05599 175.227219,44.40269 176.160219,43.09599 C177.093219,41.78939 177.821219,40.05339 178.344219,37.88799 C178.867219,35.68539 179.128219,33.29599 179.128219,30.71999 C179.128219,27.91999 178.848219,25.45599 178.288219,23.32799 C177.765219,21.16269 177.019219,19.48269 176.048219,18.28799 C175.115219,17.05599 174.051219,16.43999 172.856219,16.43999 C171.587219,16.43999 170.467219,17.09329 169.496219,18.39999 C168.563219,19.70669 167.835219,21.44269 167.312219,23.60799 C166.789219,25.77339 166.528219,28.14399 166.528219,30.71999 C166.528219,33.55729 166.808219,36.05869 167.368219,38.22399 C167.928219,40.38929 168.675219,42.06929 169.608219,43.26399 C170.579219,44.45869 171.643219,45.05599 172.800219,45.05599 Z" id="Shape" fill="#C63E30" fill-rule="nonzero"></path>
            <path d="M124.000219,45 L124.000219,44.43999 L124.056219,44.43999 C125.400219,44.43999 126.482219,44.08529 127.304219,43.37599 C128.125219,42.66669 128.536219,41.63999 128.536219,40.29599 L128.536219,8.04001 C128.536219,6.69601 128.125219,5.61334 127.304219,4.792 C126.482219,3.97067 125.400219,3.56001 124.056219,3.56001 L124.000219,3.56001 L124.000219,3 L141.864219,3 L141.864219,3.56001 L141.640219,3.56001 C140.296219,3.56001 139.213219,3.97067 138.392219,4.792 C137.570219,5.61334 137.160219,6.69601 137.160219,8.04001 L137.160219,40.51999 C137.160219,41.71469 137.440219,42.64799 138.000219,43.31999 C138.597219,43.95469 139.624219,44.27199 141.080219,44.27199 L142.256219,44.27199 C145.578219,44.27199 148.378219,43.24539 150.656219,41.19199 C152.933219,39.13869 154.370219,36.24539 154.968219,32.51199 L155.528219,32.51199 L153.848219,45 L124.000219,45 Z" id="Path" fill="#C63E30" fill-rule="nonzero"></path>
            <path d="M356.164219,116.54439 C354.633219,116.54439 353.159219,116.24539 351.740219,115.64839 L353.924219,109.09639 C354.857219,109.46939 355.865219,109.78639 356.948219,110.04839 C358.068219,110.30939 359.188219,110.44039 360.308219,110.44039 C361.727219,110.44039 363.052219,110.14139 364.284219,109.54439 C365.553219,108.98439 366.505219,107.92039 367.140219,106.35239 L367.756219,104.84039 L356.668219,79.13599 C356.295219,78.23999 355.809219,77.53069 355.212219,77.00799 C354.577219,76.44799 353.719219,76.14939 352.636219,76.11199 L352.636219,75.55199 L368.820219,75.55199 L368.820219,76.11199 C367.812219,76.22399 367.028219,76.57869 366.468219,77.17599 C365.945219,77.77339 365.684219,78.53869 365.684219,79.47199 C365.684219,80.29339 365.871219,81.13339 366.244219,81.99199 L371.900219,95.26399 L377.556219,81.99199 C377.929219,81.13339 378.116219,80.29339 378.116219,79.47199 C378.116219,78.53869 377.836219,77.77339 377.276219,77.17599 C376.753219,76.57869 375.969219,76.22399 374.924219,76.11199 L374.924219,75.55199 L382.652219,75.55199 L382.652219,76.11199 C381.793219,76.29869 381.065219,76.85869 380.468219,77.79199 C379.871219,78.68799 379.236219,79.91999 378.564219,81.48799 L367.140219,108.03239 C365.945219,110.79439 364.396219,112.90439 362.492219,114.36039 C360.588219,115.81639 358.479219,116.54439 356.164219,116.54439 Z" id="Path" fill="#C2C7D7" fill-rule="nonzero"></path>
            <path d="M345.441219,104.78439 C343.499219,104.78439 341.913219,104.16839 340.681219,102.93639 C339.449219,101.70439 338.833219,100.09839 338.833219,98.11999 L338.833219,76.55999 L334.073219,76.55999 L334.073219,75.83199 C336.649219,75.64539 338.945219,74.82399 340.961219,73.36799 C343.014219,71.91199 344.694219,69.95199 346.001219,67.48799 L346.897219,67.48799 L346.897219,75.55199 L354.345219,75.55199 L353.785219,76.55999 L346.897219,76.55999 L346.897219,96.88799 C346.897219,99.87439 347.905219,101.36839 349.921219,101.36839 C350.593219,101.36839 351.358219,101.16239 352.217219,100.75239 C353.113219,100.34139 353.953219,99.79999 354.737219,99.12799 L354.737219,99.68799 C353.505219,101.25639 352.049219,102.50639 350.369219,103.44039 C348.689219,104.33639 347.046219,104.78439 345.441219,104.78439 Z" id="Path" fill="#C2C7D7" fill-rule="nonzero"></path>
            <path d="M317.876219,104.00039 L317.876219,103.44039 L317.932219,103.44039 C319.276219,103.44039 320.359219,103.02939 321.180219,102.20839 C322.001219,101.38639 322.412219,100.30439 322.412219,98.95999 L322.412219,80.59199 C322.412219,79.17329 322.113219,78.07199 321.516219,77.28799 C320.956219,76.50399 319.743219,76.11199 317.876219,76.11199 L317.876219,75.55199 L323.588219,75.55199 C325.492219,75.55199 326.948219,75.34669 327.956219,74.93599 C328.889219,74.52529 329.543219,74.02129 329.916219,73.42399 L330.476219,73.42399 L330.476219,98.95999 C330.476219,100.30439 330.887219,101.38639 331.708219,102.20839 C332.529219,103.02939 333.612219,103.44039 334.956219,103.44039 L335.012219,103.44039 L335.012219,104.00039 L317.876219,104.00039 Z M326.388219,69.89599 C325.044219,69.89599 323.924219,69.46669 323.028219,68.60799 C322.169219,67.71199 321.740219,66.59199 321.740219,65.24799 C321.740219,63.90399 322.169219,62.80269 323.028219,61.94399 C323.924219,61.04799 325.044219,60.59999 326.388219,60.59999 C327.695219,60.59999 328.777219,61.04799 329.636219,61.94399 C330.532219,62.83999 330.980219,63.94129 330.980219,65.24799 C330.980219,66.55469 330.532219,67.65599 329.636219,68.55199 C328.777219,69.44799 327.695219,69.89599 326.388219,69.89599 Z" id="Shape" fill="#C2C7D7" fill-rule="nonzero"></path>
            <path d="M306.432219,104.78439 C305.461219,104.78439 304.733219,104.74639 304.248219,104.67239 C303.762219,104.59739 303.296219,104.50439 302.848219,104.39239 C302.437219,104.28039 301.877219,104.18639 301.168219,104.11239 C300.458219,104.03739 299.376219,104.00039 297.920219,104.00039 L296.576219,93.47199 L297.304219,93.47199 C297.901219,96.98139 299.021219,99.63199 300.664219,101.42439 C302.306219,103.17839 304.098219,104.05639 306.040219,104.05639 C307.944219,104.05639 309.381219,103.66439 310.352219,102.88039 C311.360219,102.09639 311.864219,101.03239 311.864219,99.68799 C311.864219,98.82929 311.640219,98.08269 311.192219,97.44799 C310.781219,96.77599 310.053219,96.10399 309.008219,95.43199 C307.962219,94.72269 306.544219,93.88269 304.752219,92.91199 L303.128219,92.01599 C301.074219,90.85869 299.544219,89.51469 298.536219,87.98399 C297.565219,86.41599 297.080219,84.73599 297.080219,82.94399 C297.080219,80.40529 297.994219,78.40799 299.824219,76.95199 C301.690219,75.49599 304.173219,74.76799 307.272219,74.76799 C308.056219,74.76799 308.690219,74.80529 309.176219,74.87999 C309.661219,74.95469 310.128219,75.04799 310.576219,75.15999 C311.024219,75.27199 311.584219,75.36529 312.256219,75.43999 C312.928219,75.51469 313.824219,75.55199 314.944219,75.55199 L315.728219,84.56799 L315.056219,84.56799 C314.832219,82.81329 314.328219,81.26399 313.544219,79.91999 C312.797219,78.53869 311.901219,77.47469 310.856219,76.72799 C309.810219,75.94399 308.746219,75.55199 307.664219,75.55199 C306.245219,75.55199 305.106219,75.92529 304.248219,76.67199 C303.426219,77.41869 303.016219,78.46399 303.016219,79.80799 C303.016219,80.81599 303.333219,81.74929 303.968219,82.60799 C304.640219,83.42929 305.909219,84.32529 307.776219,85.29599 L309.456219,86.13599 C312.069219,87.47999 313.973219,88.87999 315.168219,90.33599 C316.362219,91.79199 316.960219,93.65869 316.960219,95.93599 C316.960219,101.76039 313.450219,104.70939 306.432219,104.78439 Z" id="Path" fill="#C2C7D7" fill-rule="nonzero"></path>
            <path d="M269.969219,104.00039 L269.969219,103.44039 L270.025219,103.44039 C271.369219,103.44039 272.451219,103.02939 273.273219,102.20839 C274.094219,101.38639 274.505219,100.30439 274.505219,98.95999 L274.505219,80.59199 C274.505219,79.17329 274.206219,78.07199 273.609219,77.28799 C273.049219,76.50399 271.835219,76.11199 269.969219,76.11199 L269.969219,75.55199 L275.513219,75.55199 C277.491219,75.55199 278.985219,75.36529 279.993219,74.99199 C281.001219,74.58129 281.710219,74.05869 282.121219,73.42399 L282.401219,73.42399 L282.457219,82.60799 C282.942219,81.48799 283.558219,80.31199 284.305219,79.07999 C285.089219,77.84799 286.059219,76.82129 287.217219,75.99999 C288.411219,75.14129 289.830219,74.71199 291.473219,74.71199 C292.033219,74.71199 292.630219,74.76799 293.265219,74.87999 C293.899219,74.99199 294.571219,75.19729 295.281219,75.49599 L293.097219,82.04799 C291.753219,81.30129 290.577219,80.77869 289.569219,80.47999 C288.598219,80.18129 287.739219,80.03199 286.993219,80.03199 C285.723219,80.03199 284.771219,80.42399 284.137219,81.20799 C283.539219,81.99199 283.017219,82.92529 282.569219,84.00799 L282.569219,98.95999 C282.569219,100.30439 282.979219,101.38639 283.801219,102.20839 C284.622219,103.02939 285.705219,103.44039 287.049219,103.44039 L287.105219,103.44039 L287.105219,104.00039 L269.969219,104.00039 Z" id="Path" fill="#C2C7D7" fill-rule="nonzero"></path>
            <path d="M256.040219,104.67239 C253.464219,104.67239 251.168219,104.03739 249.152219,102.76839 C247.174219,101.49839 245.624219,99.74399 244.504219,97.50399 C243.384219,95.22669 242.824219,92.63199 242.824219,89.71999 C242.824219,86.73329 243.440219,84.11999 244.672219,81.87999 C245.904219,79.63999 247.584219,77.90399 249.712219,76.67199 C251.878219,75.40269 254.323219,74.76799 257.048219,74.76799 C259.326219,74.76799 261.342219,75.21599 263.096219,76.11199 C264.888219,77.00799 266.307219,78.27729 267.352219,79.91999 C268.435219,81.52529 269.051219,83.39199 269.200219,85.51999 L269.256219,86.35999 L250.440219,86.35999 L250.440219,86.63999 C250.440219,90.59729 251.318219,93.77069 253.072219,96.15999 C254.827219,98.51199 257.179219,99.68799 260.128219,99.68799 C261.920219,99.68799 263.619219,99.25869 265.224219,98.39999 C266.867219,97.50399 268.192219,96.30929 269.200219,94.81599 L269.704219,94.98399 C269.070219,96.88799 268.080219,98.56799 266.736219,100.02439 C265.392219,101.48039 263.806219,102.61839 261.976219,103.44039 C260.147219,104.26139 258.168219,104.67239 256.040219,104.67239 Z M250.496219,85.51999 L261.864219,85.51999 C261.864219,82.57069 261.379219,80.18129 260.408219,78.35199 C259.475219,76.52269 258.150219,75.60799 256.432219,75.60799 C254.790219,75.60799 253.427219,76.50399 252.344219,78.29599 C251.262219,80.08799 250.646219,82.49599 250.496219,85.51999 Z" id="Shape" fill="#C2C7D7" fill-rule="nonzero"></path>
            <path d="M229.191219,104.89639 L218.047219,79.13599 C217.674219,78.27739 217.170219,77.56799 216.535219,77.00799 C215.938219,76.44799 215.098219,76.14939 214.015219,76.11199 L214.015219,75.55199 L229.695219,75.55199 L229.695219,76.11199 C228.388219,76.26139 227.530219,76.83999 227.119219,77.84799 C226.746219,78.85599 226.876219,80.12539 227.511219,81.65599 L233.279219,95.15199 L238.991219,81.99199 C239.364219,81.13339 239.551219,80.29339 239.551219,79.47199 C239.551219,78.53869 239.271219,77.77339 238.711219,77.17599 C238.151219,76.57869 237.367219,76.22399 236.359219,76.11199 L236.359219,75.55199 L245.207219,75.55199 L245.207219,76.11199 C244.236219,76.33599 243.303219,76.89599 242.407219,77.79199 C241.511219,78.68799 240.708219,79.91999 239.999219,81.48799 L229.695219,104.89639 L229.191219,104.89639 Z" id="Path" fill="#C2C7D7" fill-rule="nonzero"></path>
            <path d="M200.134219,104.00039 L200.134219,103.44039 L200.190219,103.44039 C201.534219,103.44039 202.617219,103.02939 203.438219,102.20839 C204.259219,101.38639 204.670219,100.30439 204.670219,98.95999 L204.670219,80.59199 C204.670219,79.17329 204.371219,78.07199 203.774219,77.28799 C203.214219,76.50399 202.001219,76.11199 200.134219,76.11199 L200.134219,75.55199 L205.846219,75.55199 C207.750219,75.55199 209.206219,75.34669 210.214219,74.93599 C211.147219,74.52529 211.801219,74.02129 212.174219,73.42399 L212.734219,73.42399 L212.734219,98.95999 C212.734219,100.30439 213.145219,101.38639 213.966219,102.20839 C214.787219,103.02939 215.870219,103.44039 217.214219,103.44039 L217.270219,103.44039 L217.270219,104.00039 L200.134219,104.00039 Z M208.646219,69.89599 C207.302219,69.89599 206.182219,69.46669 205.286219,68.60799 C204.427219,67.71199 203.998219,66.59199 203.998219,65.24799 C203.998219,63.90399 204.427219,62.80269 205.286219,61.94399 C206.182219,61.04799 207.302219,60.59999 208.646219,60.59999 C209.953219,60.59999 211.035219,61.04799 211.894219,61.94399 C212.790219,62.83999 213.238219,63.94129 213.238219,65.24799 C213.238219,66.55469 212.790219,67.65599 211.894219,68.55199 C211.035219,69.44799 209.953219,69.89599 208.646219,69.89599 Z" id="Shape" fill="#C2C7D7" fill-rule="nonzero"></path>
            <path d="M164.750219,104.00039 L164.750219,103.44039 L164.806219,103.44039 C166.150219,103.44039 167.232219,103.02939 168.054219,102.20839 C168.875219,101.38639 169.286219,100.30439 169.286219,98.95999 L169.286219,80.59199 C169.286219,79.17329 168.987219,78.07199 168.390219,77.28799 C167.830219,76.50399 166.616219,76.11199 164.750219,76.11199 L164.750219,75.55199 L170.294219,75.55199 C172.198219,75.55199 173.654219,75.34669 174.662219,74.93599 C175.595219,74.52529 176.248219,74.02129 176.622219,73.42399 L177.182219,73.42399 L177.238219,81.26399 C178.208219,79.32269 179.683219,77.75469 181.662219,76.55999 C183.640219,75.36529 185.731219,74.76799 187.934219,74.76799 C190.435219,74.76799 192.432219,75.58929 193.926219,77.23199 C195.456219,78.87469 196.222219,81.03999 196.222219,83.72799 L196.222219,98.95999 C196.222219,100.30439 196.632219,101.38639 197.454219,102.20839 C198.275219,103.02939 199.358219,103.44039 200.702219,103.44039 L200.758219,103.44039 L200.758219,104.00039 L183.678219,104.00039 L183.678219,103.44039 L183.734219,103.44039 C185.078219,103.44039 186.160219,103.02939 186.982219,102.20839 C187.803219,101.38639 188.214219,100.30439 188.214219,98.95999 L188.214219,83.16799 C188.214219,81.30129 187.840219,79.80799 187.094219,78.68799 C186.384219,77.56799 185.432219,77.00799 184.238219,77.00799 C183.080219,77.00799 181.867219,77.51199 180.598219,78.51999 C179.366219,79.49069 178.283219,80.81599 177.350219,82.49599 L177.350219,98.95999 C177.350219,100.30439 177.760219,101.38639 178.582219,102.20839 C179.403219,103.02939 180.486219,103.44039 181.830219,103.44039 L181.886219,103.44039 L181.886219,104.00039 L164.750219,104.00039 Z" id="Path" fill="#C2C7D7" fill-rule="nonzero"></path>
            <path d="M144.608219,104.78439 C141.322219,104.78439 138.466219,104.14939 136.040219,102.88039 C133.613219,101.61039 131.728219,99.81839 130.384219,97.50399 C129.077219,95.15199 128.424219,92.40799 128.424219,89.27199 L128.424219,67.03999 C128.424219,65.69599 128.013219,64.61339 127.192219,63.79199 C126.370219,62.97069 125.288219,62.55999 123.944219,62.55999 L123.720219,62.55999 L123.720219,61.99999 L141.752219,61.99999 L141.752219,62.55999 L141.584219,62.55999 C140.240219,62.55999 139.157219,62.97069 138.336219,63.79199 C137.514219,64.61339 137.104219,65.69599 137.104219,67.03999 L137.104219,89.27199 C137.104219,93.22939 138.112219,96.36539 140.128219,98.67999 C142.181219,100.95739 144.944219,102.09639 148.416219,102.09639 C151.925219,102.09639 154.688219,100.93839 156.704219,98.62399 C158.720219,96.27199 159.728219,93.15469 159.728219,89.27199 L159.728219,67.87999 C159.728219,66.27469 159.242219,65.00539 158.272219,64.07199 C157.301219,63.13869 156.013219,62.63469 154.408219,62.55999 L154.408219,61.99999 L166.000219,61.99999 L166.000219,62.55999 C164.394219,62.63469 163.106219,63.13869 162.136219,64.07199 C161.165219,65.00539 160.680219,66.27469 160.680219,67.87999 L160.680219,89.27199 C160.680219,92.40799 160.026219,95.13339 158.720219,97.44799 C157.450219,99.76269 155.602219,101.57339 153.176219,102.88039 C150.786219,104.14939 147.930219,104.78439 144.608219,104.78439 Z" id="Path" fill="#C2C7D7" fill-rule="nonzero"></path>
            <path d="M85.000019,7 L85.000019,0 L101.000219,0 L101.000219,64.49999 C101.000219,92.39039 78.390419,115.00039 50.500019,115.00039 C23.786119,115.00039 1.916869,94.25759 0.119393,67.99999 L0,67.99999 L0,0 L16.000019,0 L16.000019,7 L43.000019,7 L43.000019,0 L59.000019,0 L59.000019,7 L85.000019,7 Z M85.000019,64.49999 L85.000019,54.68309 C83.200319,56.53859 81.271219,58.30059 79.224219,59.96029 C72.466419,65.43929 64.528019,69.71959 55.893319,72.61939 C47.257719,75.51949 38.043219,76.99999 28.764719,76.99999 L18.334219,76.99999 C23.341019,89.87479 35.854819,98.99999 50.500019,98.99999 C69.553819,98.99999 85.000019,83.55379 85.000019,64.49999 Z M44.517619,52.45019 C41.469419,55.68119 38.033719,58.48309 34.297219,60.78459 C39.980319,60.34109 45.544319,59.21679 50.799619,57.45189 C57.751719,55.11709 63.975819,51.72509 69.147619,47.53199 C74.317319,43.34059 78.306819,38.45529 80.986219,33.21049 C82.677819,29.89949 83.835119,26.47089 84.457419,22.99999 L58.485019,22.99999 C57.899319,27.25409 56.817219,31.42909 55.254219,35.42879 C52.777719,41.76639 49.136619,47.55399 44.517619,52.45019 Z M16.000019,51.21689 L16.000019,22.99999 L42.270719,22.99999 C41.827919,25.25819 41.186019,27.47009 40.351619,29.60539 C38.606819,34.07059 36.060419,38.09869 32.879319,41.47059 C29.699119,44.84169 25.949119,47.48919 21.856519,49.28609 C19.955719,50.12069 17.995319,50.76559 16.000019,51.21689 Z" id="Shape" fill="#C63E30"></path>
        </g>
    </g>
</svg>